<svg xmlns="http://www.w3.org/2000/svg"  viewBox="0 0 100 100" width="100px" height="100px"><path fill="#78a0cf" d="M13 27A2 2 0 1 0 13 31A2 2 0 1 0 13 27Z"/><path fill="#f1bc19" d="M77 12A1 1 0 1 0 77 14A1 1 0 1 0 77 12Z"/><path fill="#cee1f4" d="M50 13A37 37 0 1 0 50 87A37 37 0 1 0 50 13Z"/><path fill="#f1bc19" d="M83 11A4 4 0 1 0 83 19A4 4 0 1 0 83 11Z"/><path fill="#78a0cf" d="M87 22A2 2 0 1 0 87 26A2 2 0 1 0 87 22Z"/><path fill="#fbcd59" d="M81 74A2 2 0 1 0 81 78 2 2 0 1 0 81 74zM15 59A4 4 0 1 0 15 67 4 4 0 1 0 15 59z"/><path fill="#78a0cf" d="M25 85A2 2 0 1 0 25 89A2 2 0 1 0 25 85Z"/><path fill="#fff" d="M18.5 51A2.5 2.5 0 1 0 18.5 56A2.5 2.5 0 1 0 18.5 51Z"/><path fill="#f1bc19" d="M21 66A1 1 0 1 0 21 68A1 1 0 1 0 21 66Z"/><path fill="#fff" d="M80 33A1 1 0 1 0 80 35A1 1 0 1 0 80 33Z"/><path fill="#babce2" d="M35,72.3c-4,0-7.3-3.3-7.3-7.3V35c0-4,3.3-7.3,7.3-7.3h30c4,0,7.3,3.3,7.3,7.3v30c0,4-3.3,7.3-7.3,7.3H35z"/><path fill="#472b29" d="M65,28.4c3.6,0,6.6,3,6.6,6.6v30c0,3.6-3,6.6-6.6,6.6H35c-3.6,0-6.6-3-6.6-6.6V35c0-3.6,3-6.6,6.6-6.6H65 M65,27H35c-4.4,0-8,3.6-8,8v30c0,4.4,3.6,8,8,8h30c4.4,0,8-3.6,8-8V35C73,30.6,69.4,27,65,27L65,27z"/><path fill="#fdfcee" d="M68.5,47.9v1.8V64c0,2.5-2,4.5-4.5,4.5H36c-2.5,0-4.5-2-4.5-4.5V36c0-2.5,2-4.5,4.5-4.5h25.4H64 c2.5,0,4.5,2,4.5,4.5v3.4v2v1v1.1v2.9V47.9"/><path fill="#472b29" d="M68.5 47.4c-.3 0-.5-.2-.5-.5V43c0-.3.2-.5.5-.5S69 42.7 69 43v3.9C69 47.2 68.8 47.4 68.5 47.4zM68.5 40.5c-.3 0-.5-.2-.5-.5v-2c0-.3.2-.5.5-.5S69 37.7 69 38v2C69 40.3 68.8 40.5 68.5 40.5z"/><path fill="#472b29" d="M64,69H36c-2.8,0-5-2.2-5-5V36c0-2.8,2.2-5,5-5h25.4c0.3,0,0.5,0.2,0.5,0.5S61.7,32,61.4,32H36 c-2.2,0-4,1.8-4,4v28c0,2.2,1.8,4,4,4h28c2.2,0,4-1.8,4-4V49.6c0-0.3,0.2-0.5,0.5-0.5s0.5,0.2,0.5,0.5V64C69,66.8,66.8,69,64,69z"/><path fill="#bcbce2" d="M60.1,49.8c0-1.5,0.8-2.4,2.1-3c-0.1-0.8-1-3.1-1.5-3.7c-1.3,0.6-2.5,0.5-3.6-0.5c-1.1-1-1.1-2.3-0.5-3.6 c-1.1-0.7-2.4-1.2-3.7-1.5c-0.4,1.3-1.3,2.1-2.6,2.2c-1.6,0.1-2.6-0.7-3.2-2.2c-1.3,0.3-2.5,0.8-3.7,1.5c0.6,1.3,0.5,2.5-0.5,3.6 c-1,1.1-2.3,1.2-3.6,0.5c-0.7,1.1-1.2,2.4-1.5,3.7c1.3,0.5,2.1,1.4,2.2,2.8c0,1.5-0.8,2.4-2.1,3c0.3,1.3,0.8,2.5,1.5,3.6 c1.3-0.6,2.5-0.5,3.5,0.5c1,1,1.2,2.2,0.6,3.5c1.1,0.7,2.4,1.2,3.7,1.5c0,0,0-0.1,0-0.1c0.5-1.2,1.5-2,2.8-2c1.3,0,2.4,0.7,2.9,2 c0.1,0.1,0.1,0.1,0.2,0.1c1.2-0.3,2.3-0.8,3.3-1.4c0.1,0,0.1-0.1,0.2-0.1C56.1,59.2,56.1,58,57,57c1-1.2,2.3-1.4,3.7-0.8 c0.7-1.1,1.2-2.3,1.5-3.6C60.9,52.1,60.1,51.2,60.1,49.8z M50,51.9c-1.2,0-2.1-1-2.1-2.1c0-1.2,1-2.1,2.2-2.1c1.2,0,2.1,1,2.1,2.2 C52.1,50.9,51.2,51.9,50,51.9z"/><path fill="#472b29" d="M47.2,62.3C47.2,62.3,47.1,62.2,47.2,62.3c-1.4-0.3-2.7-0.8-3.8-1.5c-0.2-0.1-0.2-0.3-0.1-0.5 c0.5-1.2,0.4-2.3-0.5-3.1c-0.9-0.8-1.9-1-3.1-0.4c-0.2,0.1-0.4,0-0.5-0.1c-0.7-1.2-1.3-2.4-1.6-3.7c0-0.2,0.1-0.4,0.2-0.4 c1.3-0.5,1.9-1.4,1.9-2.6c0-1.2-0.7-2-1.9-2.5c-0.2-0.1-0.3-0.2-0.2-0.4c0.3-1.3,0.8-2.6,1.5-3.8c0.1-0.2,0.3-0.2,0.5-0.1 c1.3,0.6,2.3,0.4,3.2-0.5c0.9-0.9,1-1.9,0.4-3.2c-0.1-0.2,0-0.4,0.1-0.5c1.1-0.7,2.4-1.2,3.8-1.6c0.2,0,0.4,0.1,0.4,0.2 c0.5,1.4,1.4,2,2.8,1.9c1.1-0.1,1.9-0.7,2.3-1.9c0.1-0.2,0.2-0.3,0.4-0.2c1.3,0.3,2.6,0.8,3.8,1.6c0.2,0.1,0.2,0.3,0.1,0.5 c-0.6,1.3-0.4,2.3,0.4,3.2c0.9,0.9,1.9,1,3.2,0.4c0.1-0.1,0.3,0,0.4,0.1c0.5,0.6,1.5,3,1.6,3.9c0,0.2-0.1,0.3-0.2,0.4 c-1.3,0.5-1.9,1.4-1.9,2.6l0,0c0,1.2,0.6,2,1.9,2.5c0.2,0.1,0.3,0.2,0.2,0.4c-0.3,1.3-0.8,2.6-1.6,3.7c-0.1,0.2-0.3,0.2-0.5,0.1 c-1.3-0.6-2.4-0.4-3.3,0.7c-0.7,0.8-0.8,1.8-0.3,2.9c0.1,0.2,0,0.4-0.1,0.5l-0.2,0.1c-1.1,0.6-2.2,1.1-3.4,1.4 c-0.4,0.1-0.6-0.1-0.7-0.3c-0.4-1.1-1.4-1.7-2.5-1.7c-1.1,0-2,0.7-2.4,1.8c0,0,0,0.1,0,0.1C47.5,62.1,47.3,62.3,47.2,62.3z M44,60.2c0.9,0.5,1.9,0.9,3,1.2c0.6-1.3,1.7-2,3-2c0,0,0,0,0,0c1.4,0,2.5,0.8,3.1,2c1.1-0.3,2.1-0.7,3-1.2 c-0.5-1.3-0.3-2.4,0.5-3.4c1-1.2,2.3-1.5,3.8-1c0.5-0.9,1-1.9,1.2-3c-1.3-0.6-2-1.6-2.1-3l0,0c0-1.5,0.7-2.6,2.1-3.2 c-0.2-0.8-0.8-2.3-1.2-3c-1.4,0.6-2.7,0.3-3.7-0.7c-1-1-1.3-2.3-0.7-3.7c-0.9-0.5-1.9-1-3-1.2c-0.5,1.3-1.5,2-2.8,2.1 c-1.6,0.1-2.8-0.6-3.4-2.1c-1.1,0.3-2.1,0.7-3,1.2c0.6,1.4,0.3,2.7-0.7,3.7c-1,1-2.3,1.3-3.7,0.7c-0.5,0.9-0.9,1.9-1.2,3 c1.3,0.6,2.1,1.6,2.1,3c0,1.5-0.7,2.5-2.1,3.2c0.3,1,0.7,2,1.3,3c1.4-0.5,2.6-0.3,3.6,0.7C44.2,57.6,44.5,58.8,44,60.2z M50,52.2 L50,52.2c-0.7,0-1.3-0.3-1.8-0.7c-0.5-0.5-0.7-1.1-0.7-1.8c0-0.7,0.3-1.3,0.7-1.8c0.5-0.5,1.1-0.7,1.8-0.7c0.7,0,1.3,0.3,1.8,0.8 c0.5,0.5,0.7,1.1,0.7,1.8C52.5,51.2,51.4,52.2,50,52.2C50,52.2,50,52.2,50,52.2z M50,48c-0.5,0-0.9,0.2-1.3,0.5 c-0.3,0.3-0.5,0.8-0.5,1.2s0.2,0.9,0.5,1.3c0.3,0.3,0.8,0.5,1.3,0.5c1,0,1.7-0.8,1.8-1.7c0-0.5-0.2-0.9-0.5-1.3 C51,48.2,50.5,48,50,48C50.1,48,50.1,48,50,48z"/><path fill="#7878aa" d="M57.8,47.9c-1.1-4.2-5.4-6.7-9.6-5.7c-4.2,1.1-6.8,5.3-5.7,9.5c1.1,4.2,5.4,6.7,9.6,5.7 C56.3,56.3,58.9,52.1,57.8,47.9z M51.7,55.9c-3.4,0.9-6.8-1.2-7.7-4.5c-0.9-3.4,1.2-6.8,4.6-7.6s6.7,1.3,7.6,4.6 C57,51.7,55,55,51.7,55.9z"/><path fill="#472b29" d="M50.1 56.4c-2.9 0-5.5-2-6.3-4.9-.4-1.7-.2-3.4.7-4.9.9-1.5 2.3-2.5 4-3 1.7-.4 3.4-.2 4.9.7 1.5.9 2.5 2.3 3 4 .9 3.5-1.2 7-4.7 7.9l0 0C51.1 56.3 50.6 56.4 50.1 56.4zM51.6 55.9L51.6 55.9 51.6 55.9zM50.1 43.9c-.5 0-1 .1-1.5.2-1.5.4-2.8 1.4-3.7 2.7s-1 3-.7 4.5c.8 3.2 4.1 5.1 7.2 4.3l0 0c3.2-.8 5.1-4.1 4.3-7.2-.4-1.5-1.4-2.8-2.7-3.7C52.2 44.2 51.1 43.9 50.1 43.9zM42.6 47.4C42.6 47.4 42.5 47.3 42.6 47.4c-.2-.1-.3-.2-.2-.4.9-2.6 3.1-4.5 5.7-5.2.1 0 .3 0 .3.2s0 .3-.2.3c-2.5.6-4.5 2.4-5.3 4.8C42.8 47.3 42.7 47.4 42.6 47.4z"/><path fill="#472b29" d="M50.2,57.8c-0.8,0-1.7-0.1-2.5-0.4c-2.8-0.8-4.9-3-5.6-5.7c0-0.1,0-0.3,0.2-0.3c0.1,0,0.3,0,0.3,0.2 c0.6,2.5,2.6,4.5,5.3,5.3c2.7,0.8,5.4,0.2,7.4-1.6c0.1-0.1,0.3-0.1,0.4,0s0.1,0.3,0,0.4C54.2,57.1,52.2,57.8,50.2,57.8z"/><path fill="#a2a2cc" d="M57,53.6c-0.2,0.3-0.3,0.6-0.5,0.9"/><path fill="#472b29" d="M56.5,54.7c-0.1,0-0.1,0-0.2,0c-0.1-0.1-0.1-0.2-0.1-0.4c0.2-0.3,0.4-0.5,0.5-0.8c0.1-0.1,0.2-0.2,0.4-0.1 c0.1,0.1,0.2,0.2,0.1,0.4c-0.2,0.3-0.4,0.6-0.6,0.9C56.6,54.7,56.5,54.7,56.5,54.7z"/><path fill="#a2a2cc" d="M57.8,51.5c-0.1,0.5-0.3,0.9-0.5,1.4"/><path fill="#472b29" d="M57.3 53.2c0 0-.1 0-.1 0-.1-.1-.2-.2-.1-.3.2-.4.3-.9.4-1.3 0-.1.2-.2.3-.2.1 0 .2.2.2.3-.1.5-.3 1-.5 1.4C57.5 53.1 57.4 53.2 57.3 53.2zM57.7 48.1c-.1 0-.2-.1-.3-.2-.6-2.5-2.5-4.5-4.9-5.4-.1 0-.2-.2-.2-.3 0-.1.2-.2.3-.2 2.6.9 4.6 3 5.2 5.7C58 47.9 57.9 48 57.7 48.1 57.8 48.1 57.8 48.1 57.7 48.1z"/><path fill="none" d="M52.9 44.1L55 43.6"/><path fill="#472b29" d="M52.9,44.3c-0.1,0-0.1,0-0.1-0.1c0-0.1,0-0.1,0.1-0.2l2.1-0.5c0.1,0,0.1,0,0.2,0.1c0,0.1,0,0.1-0.1,0.2 L52.9,44.3C52.9,44.3,52.9,44.3,52.9,44.3z"/><path fill="none" d="M54.7 45.4L56.3 45.1"/><path fill="#472b29" d="M54.7,45.5c-0.1,0-0.1,0-0.1-0.1c0-0.1,0-0.1,0.1-0.2l1.6-0.3c0.1,0,0.1,0,0.2,0.1s0,0.1-0.1,0.2L54.7,45.5 C54.7,45.5,54.7,45.5,54.7,45.5z"/><path fill="none" d="M55.7 47L57.3 46.8"/><path fill="#472b29" d="M55.7,47.1c-0.1,0-0.1,0-0.1-0.1c0-0.1,0-0.1,0.1-0.1l1.6-0.2c0.1,0,0.1,0,0.1,0.1c0,0.1,0,0.1-0.1,0.1 L55.7,47.1C55.7,47.1,55.7,47.1,55.7,47.1z"/><path fill="none" d="M47 42.5L47.2 44"/><path fill="#472b29" d="M47.2,44.1c-0.1,0-0.1,0-0.1-0.1l-0.2-1.5c0-0.1,0-0.1,0.1-0.1c0.1,0,0.1,0,0.1,0.1l0.2,1.5 C47.3,44.1,47.3,44.1,47.2,44.1C47.2,44.1,47.2,44.1,47.2,44.1z"/><path fill="none" d="M45.5 43.4L46 45"/><path fill="#472b29" d="M46,45.1c-0.1,0-0.1,0-0.1-0.1l-0.5-1.6c0-0.1,0-0.1,0.1-0.2c0.1,0,0.1,0,0.2,0.1l0.5,1.6 C46.1,45,46.1,45.1,46,45.1C46,45.1,46,45.1,46,45.1z"/><path fill="none" d="M43.9 44.8L44.9 46.2"/><path fill="#472b29" d="M44.9,46.3c0,0-0.1,0-0.1-0.1l-1-1.4c0-0.1,0-0.1,0-0.2c0.1,0,0.1,0,0.2,0l1,1.4C45,46.2,45,46.3,44.9,46.3 C44.9,46.3,44.9,46.3,44.9,46.3z"/><path fill="none" d="M42.8 52.7L44.4 52.7"/><path fill="#472b29" d="M42.8,52.9c-0.1,0-0.1-0.1-0.1-0.1c0-0.1,0.1-0.1,0.1-0.1l1.6-0.1c0.1,0,0.1,0.1,0.1,0.1 c0,0.1-0.1,0.1-0.1,0.1L42.8,52.9C42.8,52.9,42.8,52.9,42.8,52.9z"/><path fill="none" d="M43.7 54.5L45.3 54"/><path fill="#472b29" d="M43.7,54.6c-0.1,0-0.1,0-0.1-0.1c0-0.1,0-0.1,0.1-0.2l1.6-0.5c0.1,0,0.1,0,0.2,0.1c0,0.1,0,0.1-0.1,0.2 L43.7,54.6C43.8,54.6,43.8,54.6,43.7,54.6z"/><path fill="none" d="M45.4 56L46.8 55.3"/><path fill="#472b29" d="M45.4,56.1c0,0-0.1,0-0.1-0.1c0-0.1,0-0.1,0.1-0.2l1.3-0.7c0.1,0,0.1,0,0.2,0.1c0,0.1,0,0.1-0.1,0.2L45.4,56.1 C45.5,56.1,45.5,56.1,45.4,56.1z"/><path fill="none" d="M47.6 57L48.6 56.1"/><path fill="#472b29" d="M47.6,57.1C47.6,57.1,47.6,57.1,47.6,57.1c-0.1-0.1-0.1-0.2-0.1-0.2l1-0.9c0.1,0,0.1,0,0.2,0 c0,0.1,0,0.1,0,0.2L47.6,57.1C47.7,57.1,47.7,57.1,47.6,57.1z"/><path fill="none" d="M50 57.6L50.7 56.1"/><path fill="#472b29" d="M50,57.7C50,57.7,49.9,57.7,50,57.7c-0.1-0.1-0.1-0.1-0.1-0.2l0.8-1.4c0-0.1,0.1-0.1,0.2-0.1 c0.1,0,0.1,0.1,0.1,0.2l-0.8,1.4C50.1,57.7,50,57.7,50,57.7z"/><path fill="none" d="M52.5 57.2L52.6 55.7"/><path fill="#472b29" d="M52.5,57.3C52.5,57.3,52.5,57.3,52.5,57.3c-0.1,0-0.1-0.1-0.1-0.1l0.1-1.5c0-0.1,0.1-0.1,0.1-0.1 c0.1,0,0.1,0.1,0.1,0.1l-0.1,1.5C52.6,57.2,52.6,57.3,52.5,57.3z"/><path fill="#a2a2cc" d="M48.9,41.9c0.5-0.1,1-0.1,1.5-0.1"/><g><path fill="#472b29" d="M48.9,42.2c-0.1,0-0.2-0.1-0.3-0.2c0-0.1,0.1-0.3,0.2-0.3c0.5-0.1,1-0.1,1.5-0.1c0.1,0,0.3,0.1,0.2,0.3 c0,0.1-0.1,0.2-0.3,0.2C49.9,42.1,49.4,42.1,48.9,42.2C48.9,42.2,48.9,42.2,48.9,42.2z"/></g></svg>